<?xml version="1.0" encoding="utf-8"?>
<!-- Generator: Adobe Illustrator 22.0.1, SVG Export Plug-In . SVG Version: 6.00 Build 0)  -->
<svg version="1.1" id="Layer_1" xmlns="http://www.w3.org/2000/svg" xmlns:xlink="http://www.w3.org/1999/xlink" x="0px" y="0px"
	 viewBox="0 0 250 148" style="enable-background:new 0 0 250 148;" xml:space="preserve">
<style type="text/css">
	.st0{fill:#FFFFFF;}
</style>
<g>
	<path class="st0" d="M40.1,54.6c1.4-2.6,1.7-4.2,1.7-7.7V31c0-3.5-0.3-5.1-1.7-7.7v-0.1c6.2,0,7.7-0.2,11.1-0.2
		c9.1,0,10.8,4.1,10.8,7.3c0,3.4-1.7,6.2-5.8,7.6c5.5,0.9,7.4,4.3,7.4,7.9c0,4.9-3.5,8.7-12.3,8.7L40.1,54.6L40.1,54.6z M57.3,30.7
		c0-4.3-2.4-6.7-6.8-6.7c-1.7,0-2.8,0.1-3.8,0.4v13.5h4.9C55.8,37.9,57.3,34,57.3,30.7 M58.4,46.1c0-4.3-2.1-7.4-6.5-7.4h-5.3v14.5
		c1,0.3,2.3,0.5,4,0.5C55.8,53.8,58.4,50.7,58.4,46.1"/>
	<path class="st0" d="M75.6,39c0-9.1,8-16.4,15.9-16.4s16,7.3,16,16.4s-8,16.3-16,16.3S75.6,48.1,75.6,39 M102.2,39
		c0-8.8-3.3-15.5-10.6-15.5C84.3,23.5,81,30.2,81,39c0,8.8,3.3,15.4,10.5,15.4C98.9,54.4,102.2,47.9,102.2,39"/>
	<path class="st0" d="M129.4,54.6L129.4,54.6c1.4-2.7,1.7-4.3,1.7-7.8V24l-4.6,0.2c-1.9,0.1-5,4.9-7.2,8.1l-0.3-0.1l1.6-8.8h25.9
		l1.6,8.8l-0.3,0.1c-2.3-3.1-5.3-7.9-7.2-8.1l-4.6-0.2v22.9c0,3.6,0.3,5,1.7,7.7v0.1H129.4z"/>
	<path class="st0" d="M159.5,39c0-9.1,8-16.4,15.9-16.4c8,0,16,7.3,16,16.4s-8,16.3-16,16.3C167.5,55.3,159.5,48.1,159.5,39
		 M186.1,39c0-8.8-3.3-15.5-10.6-15.5c-7.3,0-10.5,6.7-10.5,15.5c0,8.8,3.3,15.4,10.5,15.4C182.8,54.4,186.1,47.9,186.1,39"/>
	<path class="st0" d="M199.8,54.6L199.8,54.6c2.5-1.8,4.2-3.7,6.2-6.7l6-8.7l-5.9-10c-1.7-2.7-3-4.6-5-5.8v-0.1h9.9v0.1
		c-0.8,0.9-0.6,3.3,0.7,5.6l3.9,6.6l3.1-4.5c2.4-3.5,2.5-5.4,1.3-7.6v-0.1h7.2v0.1c-2.7,1.8-4.6,3.7-6.7,6.6l-4.5,6.4l7.4,12.3
		c1.7,2.8,3,4.6,5,5.9v0.1h-9.9v-0.1c0.8-0.9,0.6-3.3-0.7-5.6l-5.3-9l-4.7,6.9c-2.5,3.6-1.7,5.4-0.9,7.6v0.1H199.8z"/>
	<path class="st0" d="M231.6,24.6c0.3,0,0.5-0.1,0.5-0.3c0-0.2-0.2-0.3-0.4-0.3h-0.6v0.7H231.6z M230.7,23.7h1
		c0.5,0,0.7,0.3,0.7,0.6c0,0.4-0.3,0.6-0.6,0.6v0c0.2,0.1,0.3,0.3,0.5,0.6l0.3,0.4h-0.4l-0.2-0.3c-0.3-0.5-0.4-0.6-0.7-0.6h-0.2v0.9
		h-0.4V23.7z M229.9,24.7c0,1,0.8,1.7,1.7,1.7c0.9,0,1.7-0.8,1.7-1.7c0-1-0.8-1.7-1.7-1.7C230.7,23,229.9,23.8,229.9,24.7
		 M233.6,24.7c0,1.1-0.9,2.1-2,2.1c-1.1,0-2-0.9-2-2.1c0-1.1,0.9-2.1,2-2.1C232.7,22.7,233.6,23.6,233.6,24.7"/>
	<path class="st0" d="M49.7,85.2c-5.1,0-9.6-4-9.6-10.7c0-7,4.7-11.1,9.9-11.1c3.7,0,6.8,2.2,7,5.4l-2.5,0.3
		c-0.4-2.8-2.3-4.4-5.2-4.4c-3.9,0-7.1,3.6-7.1,8.8c0,5.4,3.4,9.4,8,9.4c3,0,5.6-1.6,7.1-4.2C56.8,83.3,53.2,85.2,49.7,85.2"/>
	<path class="st0" d="M69,74c0,6,3.7,9.8,8,9.8c4.2,0,7.4-3.5,7.4-9.2c0-6.1-3.7-9.9-8.1-9.9C72.1,64.8,69,68.4,69,74 M86.9,74.4
		c0,6.6-5,10.8-10.3,10.8c-5.4,0-10.1-4.2-10.1-11c0-6.5,5-10.8,10.3-10.8C82.2,63.5,86.9,67.6,86.9,74.4"/>
	<path class="st0" d="M107.7,68.2l-2.5,0.3c0-1.9-1-3.8-3.5-3.8c-2.3,0-3.4,1.6-3.4,3.4c0,1.8,1.1,3.1,3.3,4.5l2.2,1.4
		c2.5,1.5,4.3,3,4.3,5.7c0,3.2-3.1,5.5-6.7,5.5c-4.1,0-6.4-2.5-6.3-5.8l2.5-0.3c0.1,2.7,1,4.9,4.3,4.9c2.4,0,4-1.7,4-3.7
		c0-1.9-1.1-3.1-3.6-4.7l-2.6-1.6c-2.1-1.4-3.5-3.2-3.5-5.4c0-2.5,2.2-5.1,5.9-5.1C105.5,63.5,107.7,65.6,107.7,68.2"/>
	<polygon class="st0" points="139.3,70.1 130.7,85.4 121.8,70.2 121.8,84.8 120.1,84.8 120.1,63.2 131.1,81.9 141.5,63.2 
		141.5,84.8 139.3,84.8 	"/>
	<polygon class="st0" points="154.9,63.8 165.6,63.8 165.6,65.4 157.1,65.4 157.1,73 164.1,73 164.1,74.5 157.1,74.5 157.1,83.3 
		165.8,83.3 165.8,84.8 154.9,84.8 	"/>
	<polygon class="st0" points="173.5,63.8 189.2,63.8 189.2,65.4 182.4,65.4 182.4,84.8 180.3,84.8 180.3,65.4 173.5,65.4 	"/>
	<rect x="198.2" y="63.8" class="st0" width="2.2" height="21"/>
	<path class="st0" d="M220.8,85.2c-5.1,0-9.6-4-9.6-10.7c0-7,4.7-11.1,9.9-11.1c3.7,0,6.8,2.2,7,5.4l-2.5,0.3
		c-0.4-2.8-2.3-4.4-5.2-4.4c-3.9,0-7.1,3.6-7.1,8.8c0,5.4,3.4,9.4,8,9.4c3,0,5.6-1.6,7.1-4.2C227.9,83.3,224.4,85.2,220.8,85.2"/>
	<path class="st0" d="M42.5,11.5c5.9,0.5,9.1,1.4,12.3,2.3c-4.1-1.9-9-3.4-16.2-3.9l0,0c-6.1-0.3-11.6,0.3-15.7,1.6
		c-4.1,1.2-6.5,3.1-6.6,5.1c-0.1,1.8,1.5,3.8,5.7,5.4c-1.6-1.2-2.2-2.3-2.2-3.5c0.1-2.3,2.8-4.2,6.9-5.4
		C30.8,11.8,36.4,10.9,42.5,11.5"/>
	<path class="st0" d="M45.9,13.4c4.2,0.3,7.8,1,10.6,1.6c0,0-7.6-2.6-14.4-2.9h0c-5.8-0.5-11.2,0.3-15.1,1.5
		c-3.9,1.2-6.3,2.9-6.3,4.8c-0.1,1.3,0.8,2.5,2.8,3.8c1.7,1.1,2.9,1.4,2.9,1.4c-1.7-0.9-2.5-2.3-2.4-3.5c0.1-2.3,2.7-4,6.7-5.2
		C34.6,13.7,40,13,45.9,13.4"/>
	<path class="st0" d="M50.1,15.1c2.7,0.1,6.8,0.8,9.1,1.2c-3.4-1-9-2.1-13.5-2.3h0C40,13.7,34.8,14.3,31,15.5
		c-3.8,1.1-6.1,2.9-6.2,4.7c-0.1,1.3,1,2.7,3.1,3.9c1.5,0.9,2.8,1.5,4.8,2c-0.2-0.1-0.4-0.2-0.6-0.4c-2.2-1.2-3.5-2.7-3.4-4.3
		c0.1-2.2,2.7-3.8,6.5-4.9C39.1,15.4,44.3,14.9,50.1,15.1"/>
	<rect x="198.4" y="94.3" class="st0" width="2" height="2.1"/>
	<rect x="198.6" y="101.3" class="st0" width="1.6" height="16.3"/>
	<path class="st0" d="M143.1,118c1.6,0,2.8-0.6,4-2.1l0.1-0.1h0.4v1.9h1.3v-16.3h-1.6v11.6c0,1.4-1.1,3.9-3.8,3.9
		c-0.8,0-1.4-0.3-1.9-0.7c-0.5-0.5-1-1.5-1-3.4v-11.3h-1.6v11.6C138.9,116.3,140.3,118,143.1,118z"/>
	<g>
		<rect x="122.9" y="94.3" class="st0" width="2" height="2.1"/>
		<rect x="123.1" y="101.3" class="st0" width="1.6" height="16.3"/>
	</g>
	<path class="st0" d="M137.1,117.6v-11.6c0-2.4-0.5-5.1-4.3-5.1c-1.5,0-2.8,0.8-3.8,2.3l-0.1,0.1h-0.4v-2.1H127v16.3h1.6v-10.3
		c0-4.8,2.9-5.2,3.8-5.2c2.1,0,3.2,1.4,3.2,4v11.5H137.1z"/>
	<path class="st0" d="M174.1,117.7c0.6,0,1.1,0,1.7-0.1v-1.3c-0.4,0-0.8,0.1-1.3,0.1c-1.7,0-2-0.7-2-3v-10.9h3.3v-1.2h-3.3v-4.2
		l-1.6,0.7v3.5h-2.7v1.2h2.7v12.2C170.9,116.8,171.8,117.7,174.1,117.7z"/>
	<path class="st0" d="M186.8,107.5c0-3.1-1-6.7-5.5-6.7c-4.5,0-5.5,3.6-5.5,6.7v3.6c0,3.1,1,6.7,5.5,6.7c4.5,0,5.5-3.6,5.5-6.7
		V107.5z M181.3,116.7c-3.6,0-3.9-3.5-3.9-7.3c0-3.8,0.3-7.3,3.9-7.3c3.6,0,3.9,3.4,3.9,7.3C185.2,113.2,184.9,116.7,181.3,116.7z"
		/>
	<path class="st0" d="M163.7,102.2c1.7,0,2.7,1.4,2.8,3.7v11.8h1.6v-12.3c-0.1-2.8-1.6-4.4-4.1-4.4c-1.7,0-3.1,0.9-3.9,2.5l-0.2,0.4
		l-0.2-0.5c-0.5-1.5-1.9-2.5-3.6-2.5c-1.6,0-2.9,0.8-3.8,2.3l-0.1,0.1h-0.4v-2.1h-1.4v16.4h1.6v-10.6c0-2.4,1.1-4.9,3.6-4.9
		c1.7,0,2.7,1.4,2.8,3.7v11.8h1.6v-10.6C160.1,104.6,161.2,102.2,163.7,102.2z"/>
	<polygon class="st0" points="193.1,108.7 197.3,101.3 195.6,101.3 192.2,107.9 189,101.3 187.1,101.3 191.1,108.9 191.1,109 
		186.4,117.7 188.1,117.7 192.1,110.2 195.9,117.7 197.8,117.7 193.1,108.8 	"/>
	<path class="st0" d="M86.9,108.9c0-2.1,0-5.1-1.5-6.7c-0.8-0.8-1.8-1.2-3.2-1.2c-1.8,0-3.1,0.7-4,2.2l-0.1,0.2l-0.3-0.3v-9h-1.6
		v22.1c0,0.5-0.1,1-0.2,1.5h1.6v-2h0.4l0.1,0.1c0.8,1.5,2.1,2.2,4,2.2c4.3,0,4.9-4.1,4.9-8.5C86.9,109.3,86.9,109.1,86.9,108.9z
		 M81.4,116.8c-3.8,0-3.8-4.9-3.8-7.6c0-4.6,1.3-7.1,3.8-7.1c3.9,0,3.9,3.7,3.9,7.4C85.3,113.3,85.3,116.8,81.4,116.8z"/>
	<path class="st0" d="M51.2,107.7c0-3.1-1-6.7-5.5-6.7c-4.5,0-5.5,3.6-5.5,6.7v3.6c0,3.1,1,6.7,5.5,6.7c4.5,0,5.5-3.6,5.5-6.7V107.7
		z M45.7,116.8c-3.6,0-3.9-3.5-3.9-7.3c0-3.8,0.3-7.3,3.9-7.3c3.6,0,3.9,3.4,3.9,7.3C49.6,113.3,49.3,116.8,45.7,116.8z"/>
	<path class="st0" d="M99.1,107.7c0-3.1-1-6.7-5.5-6.7c-4.5,0-5.5,3.6-5.5,6.7v3.6c0,3.1,1,6.7,5.5,6.7c4.5,0,5.5-3.6,5.5-6.7V107.7
		z M93.6,116.8c-3.6,0-3.9-3.5-3.9-7.3c0-3.8,0.3-7.3,3.9-7.3c3.6,0,3.9,3.4,3.9,7.3C97.5,113.3,97.2,116.8,93.6,116.8z"/>
	<path class="st0" d="M72.7,115.6h0.4v2.1h1.6c-0.2-1.8-0.2-2.8-0.2-4v-8.4c0-3.8-2.8-4.2-4.9-4.2c-1.5,0-5,0.4-5.3,4.1H66
		c0.1-1.8,1.4-2.9,3.4-2.9c3.1,0,3.5,2.1,3.5,4.1v1.6l-0.2,0c-0.4,0-0.9,0.1-1.4,0.1c-3.4,0.1-7.6,0.3-7.6,5.3c0,3,1.6,4.7,4.3,4.7
		C70.2,118,71.7,117.2,72.7,115.6L72.7,115.6z M68.7,116.8c-2,0-3.2-1.4-3.2-3.6c0-3.9,3.7-4,6.4-4c0.3,0,0.6,0,0.8,0l0.2,0v3.3
		C73,114.7,71,116.8,68.7,116.8z"/>
	<rect x="119.4" y="94.1" class="st0" width="1.6" height="23.5"/>
	<path class="st0" d="M62.6,117.6v-11.6c0-2.4-0.5-5.1-4.3-5.1c-1.5,0-2.8,0.8-3.8,2.3l-0.1,0.1H54v-2.1h-1.6v16.3H54v-10.3
		c0-4.8,2.9-5.2,3.8-5.2c2.1,0,3.2,1.4,3.2,4v11.5H62.6z"/>
	<path class="st0" d="M207.9,101c-1.5,0-2.8,0.8-3.8,2.3l-0.1,0.1h-0.4v-2.1h0h-1.6v16.3h1.6h0v-10.3c0-4.5,2.5-5.1,3.6-5.2
		c0.1,0,0.1,0,0.2,0c2.1,0,3.2,1.4,3.2,4v11.5h1.3h0.2v-11.6C212.2,103.7,211.7,101,207.9,101z"/>
	<path class="st0" d="M104.7,117.7c0.6,0,1.1,0,1.7-0.1v-1.3c-0.4,0-0.8,0.1-1.3,0.1c-1.7,0-2-0.7-2-3v-10.9h3.3v-1.2h-3.3v-4.2
		l-1.6,0.7v3.5h-2.7v1.2h2.7v12.2C101.5,116.8,102.4,117.7,104.7,117.7z"/>
	<path class="st0" d="M107.6,101.3v11.6c0,3.3,1.4,5,4.2,5c1.6,0,2.8-0.6,4-2.1l0.1-0.1h0.4v1.9h1.3v-16.3h-1.6v11.6
		c0,1.4-1.1,3.9-3.8,3.9c-0.8,0-1.4-0.3-1.9-0.7c-0.5-0.5-1-1.5-1-3.4v-11.3H107.6z"/>
	<path class="st0" d="M225.8,111.4l1.9,6.3h1.9L222.4,94h-2.2l-7.3,23.6h1.8l1.8-6.3H225.8z M221,96.1h0.3l0,0.1l4,13.7H217
		L221,96.1z"/>
	<path class="st0" d="M115.2,125.2V124h1.1v1.2H115.2z M115.3,135.2v-7.8h0.9v7.8H115.3z"/>
	<path class="st0" d="M118.5,135.2h-0.9v-7.8h0.9v1h0c0.4-0.7,1.1-1.1,1.9-1.1c1.9,0,2.1,1.4,2.1,2.5v5.5h-0.9v-5.5
		c0-0.9-0.4-1.8-1.4-1.8c-0.8,0-1.7,0.6-1.7,2.3V135.2z"/>
	<path class="st0" d="M124.9,127.4v9.3c0,0.6-0.2,1.6-1.5,1.6c-0.3,0-0.6,0-0.7-0.1v-0.8c1.1,0.1,1.3-0.2,1.3-1.3v-8.8H124.9z
		 M123.9,125.2V124h1.1v1.2H123.9z"/>
	<path class="st0" d="M126.9,131.5v0.6c0,1.1,0.3,2.5,1.8,2.5c1.2,0,1.7-0.7,1.7-1.8h1c-0.1,1.9-1.1,2.5-2.7,2.5
		c-1.3,0-2.7-0.5-2.7-2.9v-1.9c0-2.3,0.9-3.3,2.7-3.3c2.7,0,2.7,1.9,2.7,4.3H126.9z M130.5,130.7c0-1.7-0.3-2.8-1.8-2.8
		c-1.5,0-1.8,1-1.8,2.8H130.5z"/>
	<path class="st0" d="M135.7,129.6c0-1-0.3-1.7-1.4-1.7c-0.6,0-1.1,0.3-1.3,0.9c-0.1,0.4-0.2,1.4-0.2,2.5c0,1.4,0,3.3,1.4,3.3
		c1.2,0,1.4-0.8,1.4-1.7h0.9c0.1,2.1-1.4,2.5-2.1,2.5c-2.6,0-2.6-2.1-2.6-4c0-0.8,0-2,0.2-2.6c0.4-1.1,1.3-1.5,2.4-1.5
		c1.3,0,2.3,0.8,2.2,2.4H135.7z"/>
	<path class="st0" d="M136.7,128.1v-0.7h1.3v-1.6l0.9-0.4v2h1.6v0.7h-1.6v5c0,1,0.1,1.3,0.9,1.3c0.3,0,0.5,0,0.7,0v0.8
		c-0.3,0-0.6,0-0.9,0c-1.3,0-1.6-0.6-1.6-1.5v-5.6H136.7z"/>
	<path class="st0" d="M141.1,125.2V124h1.1v1.2H141.1z M141.2,135.2v-7.8h0.9v7.8H141.2z"/>
	<path class="st0" d="M143.2,132.1v-1.7c0-2,0.9-3.2,2.7-3.2c1.8,0,2.7,1.2,2.7,3.2v1.7c0,2-0.9,3.2-2.7,3.2
		C144.1,135.3,143.2,134.1,143.2,132.1z M144.2,131.3c0,2,0.2,3.3,1.8,3.3c1.5,0,1.8-1.3,1.8-3.3c0-2-0.2-3.3-1.8-3.3
		C144.4,127.9,144.2,129.2,144.2,131.3z"/>
	<path class="st0" d="M150.4,135.2h-0.9v-7.8h0.9v1h0c0.4-0.7,1.1-1.1,1.9-1.1c1.9,0,2.1,1.4,2.1,2.5v5.5h-0.9v-5.5
		c0-0.9-0.4-1.8-1.4-1.8c-0.8,0-1.7,0.6-1.7,2.3V135.2z"/>
</g>
</svg>
