<?xml version="1.0" encoding="utf-8"?>
<!-- Generator: Adobe Illustrator 22.0.1, SVG Export Plug-In . SVG Version: 6.00 Build 0)  -->
<svg version="1.1" id="Layer_3" xmlns="http://www.w3.org/2000/svg" xmlns:xlink="http://www.w3.org/1999/xlink" x="0px" y="0px"
	 viewBox="0 0 183 69" style="enable-background:new 0 0 183 69;" xml:space="preserve">
<style type="text/css">
	.st0{fill:#743C97;}
	.st1{fill:#A30C33;}
	.st2{fill:#F7921E;}
</style>
<g>
	<path class="st0" d="M166.7,27.7V27h0.6c0.2,0,0.4,0.1,0.4,0.3c0,0.2-0.2,0.3-0.5,0.3H166.7z M166.3,29h0.4v-1h0.2
		c0.3,0,0.4,0.1,0.7,0.6l0.2,0.4h0.4l-0.3-0.4c-0.2-0.3-0.3-0.5-0.5-0.6v0c0.4,0,0.6-0.3,0.6-0.6c0-0.2-0.2-0.6-0.7-0.6h-1V29z
		 M167.2,25.7c-1.2,0-2.1,0.9-2.1,2.1s0.9,2.1,2.1,2.1c1.2,0,2.1-0.9,2.1-2.1S168.4,25.7,167.2,25.7z M167.2,26.1
		c1,0,1.7,0.8,1.7,1.7s-0.8,1.7-1.7,1.7c-1,0-1.7-0.8-1.7-1.7S166.2,26.1,167.2,26.1z"/>
	<path class="st0" d="M51.4,23.7h3.9c3.4,0,4.9,1,4.9,2.5c0,1.6-1.4,2.9-4.9,2.9h-5L51.4,23.7z M44.8,19.5l-4.9,24.8h17
		c8.4,0,11.9-4.1,11.9-7.2c0-2.8-2.4-5.2-6.5-6.1c3.3-1.2,5-3.1,5-5.5c0-2.9-2.6-6-11.5-6H44.8z M49.5,33.3h5.2c3.6,0,6.5,1,6.5,3.3
		c0,1.9-1.6,3.6-6.2,3.6h-7L49.5,33.3z"/>
	<path class="st0" d="M91,34.2c0,3.8-4.1,6.9-9.2,6.9c-4.4,0-7.4-2.2-7.4-5.4c0-3.7,4.2-6.8,9.2-6.8C87.9,28.9,91,31.1,91,34.2z
		 M96.7,33.9c0-5-5.2-8.5-12.8-8.5c-8.8,0-15.3,4.4-15.3,10.4c0,5.1,5.6,8.6,13.1,8.6C90.4,44.5,96.7,40.3,96.7,33.9z"/>
	<path class="st0" d="M116.5,28.8H108l-3,15.5h-5.5l3.1-15.5h-8.2l0.6-3.1h22.2L116.5,28.8z"/>
	<path class="st0" d="M135,34.2c0,3.8-4.1,6.9-9.2,6.9c-4.4,0-7.4-2.2-7.4-5.4c0-3.7,4.2-6.8,9.2-6.8C131.9,28.9,135,31.1,135,34.2z
		 M140.7,33.9c0-5-5.2-8.5-12.8-8.5c-8.8,0-15.3,4.4-15.3,10.4c0,5.1,5.6,8.6,13.1,8.6C134.4,44.5,140.7,40.3,140.7,33.9z"/>
	<path class="st0" d="M153.6,35.2l7.7,9.1h-6.1l-5.2-6.2l-7.7,6.2h-6.9l11.8-9.5l-7.6-9h6.1l5.2,6.1l7.4-6.1h6.9L153.6,35.2z"/>
	<path class="st0" d="M20.3,21.6c0-5.2,12.2-9.5,27.2-9.5c7.5,0,14.3,1.1,19.2,2.8c-4.6-3-13.7-5.1-24.1-5.1
		c-15.1,0-27.3,4.3-27.3,9.6c0,2.8,3.4,5.3,8.9,7.1C21.7,25.1,20.3,23.4,20.3,21.6z"/>
	<path class="st1" d="M68.7,16.2c0.8,0.2,1.6,0.4,2.4,0.7c-1-0.5-2.2-1.1-3.5-1.5c-4.9-1.7-11.7-2.8-19.2-2.8
		c-15,0-27.2,4.2-27.2,9.5c0,1.8,1.4,3.4,3.9,4.9c1.4,0.8,3.2,1.6,5.3,2.2c-0.8-0.4-1.5-0.9-2.1-1.3c-1.5-1.2-2.3-2.5-2.3-3.8
		c0-5.2,12.2-9.5,27.2-9.5C58.9,14.5,64.3,15.1,68.7,16.2z"/>
	<path class="st2" d="M72.9,17.6c0.4,0.1,0.7,0.1,1.1,0.2c-0.6-0.2-1.2-0.4-1.9-0.7c-4.8-1.5-11.1-2.4-18-2.4
		c-15,0-27.2,4.2-27.2,9.5c0,1.9,1.6,3.7,4.4,5.1c2.8,1.5,5.1,2.3,9.7,2.9c-2.1-0.6-2.3-0.7-3.9-1.5c-2.9-1.5-4.6-3.2-4.6-5.1
		c0-5.1,12.3-9.2,27.4-9.2C64.6,16.5,69,16.9,72.9,17.6z"/>
</g>
<g>
	<path class="st1" d="M150.8,54.8h0.6l-0.8,5.2h-0.6L150.8,54.8z M151.6,53.9H151l0.2-1h0.6L151.6,53.9z"/>
	<path class="st1" d="M152.5,54.8h0.6l-0.1,0.8h0c0.3-0.6,0.8-0.9,1.4-0.9c0.7,0,1.1,0.4,1.1,1.3c0,0.2,0,0.6-0.1,1l-0.5,2.9h-0.6
		l0.5-3c0-0.2,0.1-0.6,0.1-0.8c0-0.5-0.3-0.7-0.7-0.7c-0.4,0-0.7,0.3-1,0.6c-0.2,0.3-0.3,0.7-0.4,1.1l-0.5,2.9h-0.6L152.5,54.8z"/>
	<path class="st1" d="M155.1,61.2c0.1,0,0.2,0.1,0.2,0.1c0.3,0,0.4-0.2,0.5-1l0.8-5.4h0.6l-1,6.1c-0.1,0.6-0.4,1-0.9,1
		c-0.1,0-0.3,0-0.4-0.1L155.1,61.2z M157.4,53.9h-0.6l0.2-1h0.6L157.4,53.9z"/>
	<path class="st1" d="M158.3,57.7c0,0.1,0,0.3,0,0.4c0,0.8,0.5,1.2,1,1.2c0.6,0,0.9-0.3,1.1-1h0.6c-0.2,1.1-0.9,1.7-1.8,1.7
		c-1.3,0-1.6-1.2-1.6-2.1c0-2,0.9-3.3,2-3.3c1.1,0,1.6,0.8,1.6,2.3c0,0.3,0,0.5-0.1,0.7H158.3z M160.6,56.9c0-0.7-0.2-1.5-0.9-1.5
		c-0.8,0-1.2,0.7-1.3,1.5H160.6z"/>
	<path class="st1" d="M164.5,56.5c0-0.6-0.3-1-0.8-1c-1,0-1.5,1.3-1.5,2.4c0,0.8,0.2,1.5,1,1.5c0.5,0,1-0.4,1.1-1.1h0.6
		c-0.2,1.1-0.9,1.8-1.8,1.8c-1.1,0-1.6-0.8-1.6-2.2c0-1.6,0.8-3.2,2.1-3.2c0.9,0,1.4,0.6,1.5,1.8H164.5z"/>
	<path class="st1" d="M166.9,54.8h0.8l-0.1,0.7h-0.8l-0.5,3c0,0.1,0,0.2,0,0.3c0,0.3,0.2,0.4,0.4,0.4c0.1,0,0.2,0,0.4-0.1L167,60
		c-0.1,0-0.3,0.1-0.5,0.1c-0.5,0-0.9-0.2-0.9-0.8c0-0.1,0-0.3,0-0.4l0.5-3.2h-0.7l0.1-0.7h0.7l0.2-1.5h0.6L166.9,54.8z"/>
	<path class="st1" d="M168.4,54.8h0.6l-0.8,5.2h-0.6L168.4,54.8z M169.2,53.9h-0.6l0.2-1h0.6L169.2,53.9z"/>
	<path class="st1" d="M171.5,54.7c1,0,1.6,0.8,1.6,2.1c0,1.7-0.8,3.3-2.1,3.3c-1,0-1.6-0.9-1.6-2.2
		C169.3,56.3,170.1,54.7,171.5,54.7z M171,59.4c0.9,0,1.4-1.4,1.4-2.4c0-0.8-0.3-1.5-1-1.5c-1,0-1.5,1.4-1.5,2.5
		C169.9,58.8,170.3,59.4,171,59.4z"/>
	<path class="st1" d="M174.2,54.8h0.6l-0.1,0.8h0c0.3-0.6,0.8-0.9,1.4-0.9c0.7,0,1.1,0.4,1.1,1.3c0,0.2,0,0.6-0.1,1l-0.5,2.9H176
		l0.5-3c0-0.2,0.1-0.6,0.1-0.8c0-0.5-0.3-0.7-0.7-0.7c-0.4,0-0.7,0.3-1,0.6c-0.2,0.3-0.3,0.7-0.4,1.1l-0.5,2.9h-0.6L174.2,54.8z"/>
</g>
<g>
	<path class="st1" d="M19.4,54.5c0,3.1-1.7,6.1-5,6.1c-2.3,0-3.6-1.5-3.6-3.8c0-3,1.8-5.9,5.1-5.9C18,50.9,19.4,52.2,19.4,54.5z
		 M18.3,54.7c0-1.7-0.9-2.9-2.7-2.9c-2.4,0-3.8,2.7-3.8,4.8c0,1.8,0.9,3,2.7,3C17.1,59.6,18.3,56.8,18.3,54.7z"/>
	<path class="st1" d="M21.5,51.1h1l-0.3,1.7h0c0.7-1.1,1.9-1.9,3.2-1.9c1.6,0,2.7,0.7,2.7,2.5c0,0.3-0.1,0.7-0.1,1.1l-1.2,5.9h-1.1
		l1.3-5.9c0.1-0.3,0.1-0.6,0.1-0.9c0-1.2-0.9-1.7-1.9-1.7c-1.6,0-3.1,1.5-3.6,3.8l-1,4.7h-1.1L21.5,51.1z"/>
	<path class="st1" d="M29.8,53.9c0.3-2.1,1.9-3,3.8-3c1.2,0,3.1,0.4,3.1,2c0,0.9-0.4,2.3-0.6,3.1c-0.4,2.1-0.6,2.5-0.6,3.1
		c0,0.3,0.3,0.4,0.6,0.4c0.2,0,0.3,0,0.4,0l-0.2,0.9c-0.2,0.1-0.6,0.1-0.9,0.1c-0.6,0-1-0.4-1-1c0-0.2,0-0.3,0-0.5l0,0
		c-0.6,1.1-1.9,1.7-3.1,1.7c-1.7,0-2.9-0.7-2.9-2.5c0-1.9,1.5-2.6,3.1-2.8c1.2-0.2,2.2-0.1,2.9-0.3c0.7-0.2,1.1-0.6,1.1-1.8
		c0-1.1-1.1-1.3-1.9-1.3c-1.4,0-2.6,0.5-2.8,2.1H29.8z M35.2,55.4L35.2,55.4c-0.4,0.4-1.5,0.4-2,0.5c-1.4,0.1-3.6,0.2-3.6,2.1
		c0,1.2,1,1.7,2,1.7c1.8,0,2.9-1.1,3.3-2.7L35.2,55.4z"/>
	<path class="st1" d="M40,47.6h1.1L40,52.8h0c0.6-1.1,1.8-1.9,3.1-1.9c2.3,0,3.4,1.6,3.4,3.8c0,2.8-1.7,5.9-4.8,5.9
		c-1.5,0-2.7-0.9-3-2.4h0l-0.4,2.1h-1L40,47.6z M45.5,54.7c0-1.7-0.8-2.8-2.6-2.8c-2.4,0-3.7,2.9-3.7,5c0,1.5,0.8,2.8,2.5,2.8
		C44.2,59.6,45.5,56.9,45.5,54.7z"/>
	<path class="st1" d="M55.8,54.5c0,3.1-1.7,6.1-5,6.1c-2.3,0-3.6-1.5-3.6-3.8c0-3,1.8-5.9,5.1-5.9C54.3,50.9,55.8,52.2,55.8,54.5z
		 M54.7,54.7c0-1.7-0.9-2.9-2.7-2.9c-2.4,0-3.8,2.7-3.8,4.8c0,1.8,0.9,3,2.7,3C53.4,59.6,54.7,56.8,54.7,54.7z"/>
	<path class="st1" d="M56.3,51.1H58l0.6-2.8h1.1l-0.6,2.8h1.8l-0.2,0.9h-1.8L57.6,58c-0.1,0.4-0.1,0.6-0.1,0.9
		c0,0.3,0.2,0.6,0.6,0.6c0.4,0,0.9,0,1.3-0.1l-0.2,1c-0.4,0-0.8,0.1-1.1,0.1c-0.8,0-1.7-0.2-1.7-1.3c0-0.2,0-0.5,0.1-0.9l1.2-6.1
		h-1.6L56.3,51.1z"/>
	<path class="st1" d="M67.4,60.3h-1l0.3-1.7h0c-0.7,1.1-1.9,1.9-3.2,1.9c-1.6,0-2.7-0.7-2.7-2.5c0-0.3,0.1-0.7,0.1-1.1l1.2-5.9h1.1
		l-1.3,5.9c-0.1,0.3-0.1,0.6-0.1,0.9c0,1.2,0.9,1.7,1.9,1.7c1.6,0,3.1-1.5,3.6-3.8l1-4.7h1.1L67.4,60.3z"/>
	<path class="st1" d="M71.9,47.6H73l-2.7,12.7h-1.1L71.9,47.6z"/>
	<path class="st1" d="M73.9,51.1H75l-2,9.2H72L73.9,51.1z M74.7,47.6h1.1l-0.4,1.8h-1.1L74.7,47.6z"/>
	<path class="st1" d="M76.7,51.1h1l-0.3,1.7h0c0.7-1.1,1.9-1.9,3.2-1.9c1.6,0,2.7,0.7,2.7,2.5c0,0.3-0.1,0.7-0.1,1.1l-1.2,5.9H81
		l1.3-5.9c0.1-0.3,0.1-0.6,0.1-0.9c0-1.2-0.9-1.7-1.9-1.7c-1.6,0-3.1,1.5-3.6,3.8l-1,4.7h-1.1L76.7,51.1z"/>
	<path class="st1" d="M90.7,60.3h-1l0.3-1.7h0c-0.7,1.1-1.9,1.9-3.2,1.9c-1.6,0-2.7-0.7-2.7-2.5c0-0.3,0.1-0.7,0.1-1.1l1.2-5.9h1.1
		l-1.3,5.9c-0.1,0.3-0.1,0.6-0.1,0.9c0,1.2,0.9,1.7,1.9,1.7c1.6,0,3.1-1.5,3.6-3.8l1-4.7h1.1L90.7,60.3z"/>
	<path class="st1" d="M94.3,51.1h1L95,52.7l0,0c0.7-1.1,1.8-1.9,3.2-1.9c1.3,0,2.1,0.7,2.2,2h0c0.7-1.1,1.8-2,3.2-2
		c1.7,0,2.5,1,2.5,2.4c0,0.3-0.1,0.7-0.1,1l-1.3,6h-1.1l1.3-6c0.1-0.3,0.1-0.6,0.1-0.9c0-0.9-0.6-1.6-1.7-1.6
		c-1.9,0-2.8,1.9-3.3,4.3l-0.9,4.2H98l1.3-6c0.1-0.3,0.1-0.6,0.1-0.9c0-0.9-0.5-1.6-1.5-1.6c-1.6,0-2.9,1.7-3.4,3.8l-1,4.7h-1.1
		L94.3,51.1z"/>
	<path class="st1" d="M107.2,51.1h1.6l0.6-2.8h1.1l-0.6,2.8h1.8l-0.2,0.9h-1.8l-1.2,5.9c-0.1,0.4-0.1,0.6-0.1,0.9
		c0,0.3,0.2,0.6,0.6,0.6c0.4,0,0.9,0,1.3-0.1l-0.2,1c-0.4,0-0.8,0.1-1.1,0.1c-0.8,0-1.7-0.2-1.7-1.3c0-0.2,0-0.5,0.1-0.9l1.2-6.1
		H107L107.2,51.1z"/>
	<path class="st1" d="M119.8,54.5c0,3.1-1.7,6.1-5,6.1c-2.3,0-3.6-1.5-3.6-3.8c0-3,1.8-5.9,5.1-5.9
		C118.4,50.9,119.8,52.2,119.8,54.5z M118.7,54.7c0-1.7-0.9-2.9-2.7-2.9c-2.4,0-3.8,2.7-3.8,4.8c0,1.8,0.9,3,2.7,3
		C117.5,59.6,118.7,56.8,118.7,54.7z"/>
	<path class="st1" d="M122.8,55.5l-2.1-4.3h1.3l1.7,3.6l3.1-3.6h1.3l-4,4.4l2.4,4.7h-1.3l-1.9-4l-3.5,4h-1.3L122.8,55.5z"/>
	<path class="st1" d="M129.1,51.1h1.1l-2,9.2h-1.1L129.1,51.1z M129.9,47.6h1.1l-0.4,1.8h-1.1L129.9,47.6z"/>
	<path class="st1" d="M131.9,51.1h1l-0.3,1.7h0c0.7-1.1,1.9-1.9,3.2-1.9c1.6,0,2.7,0.7,2.7,2.5c0,0.3-0.1,0.7-0.1,1.1l-1.2,5.9h-1.1
		l1.3-5.9c0.1-0.3,0.1-0.6,0.1-0.9c0-1.2-0.9-1.7-1.9-1.7c-1.6,0-3.1,1.5-3.6,3.8l-1,4.7h-1.1L131.9,51.1z"/>
	<path class="st1" d="M145.5,47.6h1.3l2.3,12.7h-1.2l-0.6-3.9h-5.7l-2.3,3.9h-1.3L145.5,47.6z M142,55.3h5l-1.1-6.7h0L142,55.3z"/>
</g>
</svg>
